<svg width="48" height="32" viewBox="0 0 48 32" fill="none" xmlns="http://www.w3.org/2000/svg">
<g id="americanexpress-color-large">
<rect id="Rectangle" y="0.000175476" width="48" height="32" rx="4" fill="white"/>
<g id="amex">
<path id="Path" d="M8.88 17.9002V26.0602H17.14L18 24.8402L18.84 26.0602H23.89V24.2202H24.45C24.9584 24.2246 25.4643 24.1504 25.95 24.0002V26.0602H29.38V24.6002L30.54 26.0602H46.16C46.802 26.0714 47.4338 25.8978 47.98 25.5602V29.0002C47.5224 30.7724 45.9203 32.008 44.09 32.0002H4C1.79086 32.0002 0 30.2093 0 28.0002V15.4002H2.28L2.75 14.1802H3.87L4.33 15.4002H22.67V13.9402L23.83 15.4002H28.64V14.6602C29.3453 15.1622 30.1945 15.4219 31.06 15.4002H33.93L34.39 14.1802H35.51L36 15.4002H40.9V13.8202L41.9 15.4002H45.28V7.24017H41.69V8.90017L40.62 7.24017H37.48V9.34017L36.48 7.24017H31.14C30.2366 7.214 29.3524 7.50401 28.64 8.06017V7.24017H11L10.4 9.00017L9.8 7.20017H5.8V9.30017L4.86 7.20017H1.6L0 11.0002V4.00017C0 1.79103 1.79086 0.000172746 4 0.000172746H44.09C45.9278 -0.0168146 47.5406 1.22068 48 3.00017V17.9002H18.86L18 19.1002L17.16 17.9002H8.88Z" fill="#296DB6"/>
<path id="Shape" fill-rule="evenodd" clip-rule="evenodd" d="M21.3201 19.2002H24.4301V19.1602C24.9479 19.1166 25.4595 19.2978 25.8346 19.6576C26.2097 20.0173 26.412 20.5209 26.3901 21.0402C26.4029 21.5656 26.1927 22.072 25.8117 22.434C25.4306 22.796 24.9142 22.9799 24.3901 22.9402H22.6901V24.8002H21.3201V19.2002ZM14.7101 20.3602V19.1602H10.1801V24.8002H14.7101V23.6002H11.5401V22.6002H14.6501V21.3802H11.5401V20.3802L14.7101 20.3602ZM18.8001 22.0002L21.0601 19.2002H19.4001L18.0001 20.9402L16.6101 19.1602H14.9101L17.2001 22.0002L15.0001 24.8002H16.6401L18.0001 23.0002L19.3601 24.8202H21.0801L18.8001 22.0002ZM24.3101 21.7802H22.6901V20.3602H24.3101C24.6911 20.3602 25.0001 20.6691 25.0001 21.0502C25.0001 21.4313 24.6911 21.7402 24.3101 21.7402V21.7802ZM32.1701 20.7902C32.286 21.7732 31.5831 22.6642 30.6001 22.7802L32.4901 24.8002H30.7801L29.1001 22.8002H28.4801V24.8002H27.1201V19.2202H30.1801C31.1631 19.1042 32.0541 19.8071 32.1701 20.7902ZM30.0601 21.6602H28.4801V20.3602H30.0601C30.2378 20.337 30.4169 20.392 30.5512 20.5109C30.6854 20.6297 30.7616 20.8009 30.7601 20.9802C30.765 21.1606 30.6898 21.3339 30.5547 21.4535C30.4196 21.5732 30.2385 21.6269 30.0601 21.6002V21.6602ZM37.3601 19.2202V20.4202L34.1901 20.3802V21.3802H37.2801V22.6002H34.1901V23.6002H37.3601V24.8002H32.8101V19.2202H37.3601ZM41.1301 21.4202H39.8201C39.6176 21.4609 39.4105 21.3754 39.2957 21.2038C39.1808 21.0322 39.1808 20.8082 39.2957 20.6366C39.4105 20.4649 39.6176 20.3795 39.8201 20.4202H42.2501L42.7901 19.2202H39.8601C39.3615 19.1624 38.8623 19.3227 38.4906 19.6599C38.1189 19.9971 37.9109 20.4784 37.9201 20.9802C37.8897 21.4471 38.0691 21.9032 38.4095 22.2243C38.7499 22.5453 39.2157 22.6978 39.6801 22.6402H41.0001C41.2025 22.5995 41.4096 22.6849 41.5244 22.8566C41.6393 23.0282 41.6393 23.2522 41.5244 23.4238C41.4096 23.5954 41.2025 23.6809 41.0001 23.6402H38.0801V24.8402H41.0001C41.504 24.8814 42.0011 24.7026 42.3634 24.3499C42.7257 23.9972 42.9177 23.505 42.8901 23.0002C42.9153 22.538 42.7327 22.0886 42.3921 21.7751C42.0515 21.4616 41.5886 21.3168 41.1301 21.3802V21.4202ZM47.4601 20.4202H45.0301L45.0001 20.3802C44.7976 20.3395 44.5905 20.4249 44.4757 20.5966C44.3608 20.7682 44.3608 20.9922 44.4757 21.1638C44.5905 21.3354 44.7976 21.4209 45.0001 21.3802H46.3601C47.0518 21.309 47.7118 21.6873 48.0001 22.3202V23.6602C47.7247 24.4225 46.9666 24.9004 46.1601 24.8202H43.2901V23.6202H46.1801C46.3825 23.6609 46.5896 23.5754 46.7044 23.4038C46.8193 23.2322 46.8193 23.0082 46.7044 22.8366C46.5896 22.6649 46.3825 22.5795 46.1801 22.6202H44.8901C44.4257 22.6778 43.9599 22.5253 43.6195 22.2043C43.2791 21.8832 43.0997 21.4271 43.1301 20.9602C43.1209 20.4584 43.3289 19.9771 43.7006 19.6399C44.0723 19.3027 44.5715 19.1424 45.0701 19.2002H48.0001L47.4601 20.4202Z" fill="#296DB6"/>
<path id="Shape_2" fill-rule="evenodd" clip-rule="evenodd" d="M25.45 10.2802C25.4719 11.1817 24.8053 11.9522 23.91 12.0602L25.79 14.1402H24.09L22.41 12.1402H21.79V14.1402H20.4V8.50017H23.45C23.9596 8.43334 24.473 8.59128 24.8569 8.93296C25.2408 9.27463 25.4573 9.76629 25.45 10.2802ZM4.23 8.50017H2.45L0 14.1402H1.48L2 13.0002H4.63L5.11 14.1802H6.65L4.23 8.50017ZM2.38 11.8602L2.93 10.5402L3.29 9.66017L3.65 10.5402L4.19 11.8602H2.38ZM10.6 11.7602L11.7 8.50017H13.89V14.1402H12.57V10.4402V9.58017L12.31 10.4402L11 14.1402H9.8L8.52 10.4402L8.24 9.58017V10.4402V14.1402H6.91V8.50017H9.12L10.24 11.7602L10.42 12.3802L10.6 11.7602ZM19.5 9.70017V8.50017H15V14.1402H19.5V12.9402H16.33V11.9402H19.42V10.7202H16.33V9.72017L19.5 9.70017ZM23.37 10.9402H21.79V9.70017H23.37C23.5471 9.68036 23.7243 9.73649 23.8577 9.85466C23.9912 9.97282 24.0683 10.142 24.07 10.3202C24.0749 10.5006 23.9998 10.6739 23.8647 10.7935C23.7296 10.9132 23.5485 10.9669 23.37 10.9402ZM26.11 14.1402V8.50017H27.48V14.1402H26.11ZM31.11 9.72017H32.58V8.50017H31C30.2562 8.45316 29.5291 8.73387 29.0099 9.26848C28.4907 9.80309 28.2313 10.5381 28.3 11.2802V11.3602C28.2164 12.0916 28.4596 12.8227 28.9645 13.3585C29.4694 13.8943 30.1849 14.1803 30.92 14.1402H31L31.55 12.9402H31.1C30.685 12.9615 30.2819 12.7974 29.9999 12.4921C29.7179 12.1869 29.586 11.7722 29.64 11.3602V11.2802C29.5925 10.8713 29.7272 10.4623 30.0085 10.1618C30.2897 9.8613 30.6889 9.69978 31.1 9.72017H31.11ZM34.09 8.50017H35.89L38.3 14.1802H36.76L36.28 13.0002H33.61L33.13 14.1402H31.67L34.09 8.50017ZM34.05 11.8602L34.57 10.5402L34.93 9.66017L35.27 10.5402L35.81 11.8602H34.05ZM42.61 11.5002V8.50017H44V14.1402H42.35L40.26 10.9602L39.9 10.3402V11.0002V14.1802H38.56V8.54017H40.23L42.23 11.5402L42.61 12.1802V11.5002Z" fill="#296DB6"/>
</g>
</g>
</svg>
