<svg width="15" height="13" viewBox="0 0 15 13" fill="none" xmlns="http://www.w3.org/2000/svg">
<g clip-path="url(#clip0)">
<path d="M3.75781 0H2.87891V9.19141H2V11.4766H2.87891V13H3.75781V11.4766H4.63672V9.19141H3.75781V0ZM3.75781 10.7148H2.87891V9.95312H3.75781V10.7148Z" fill="white"/>
<path d="M15.2129 9.19141H14.334V0H13.4551V9.19141H12.5762V11.4766H13.4551V13H14.334V11.4766H15.2129V9.19141ZM14.334 10.7148H13.4551V9.95312H14.334V10.7148Z" fill="white"/>
<path d="M10.8184 0H9.93945V5.63672H9.06055V7.92188H9.93945V13H10.8184V7.92188H11.6973V5.63672H10.8184V0ZM10.8184 7.16016H9.93945V6.39844H10.8184V7.16016Z" fill="white"/>
<path d="M7.27344 0H6.39453V1.36226H5.51562V3.64741H6.39453V13H7.27344V3.64741H8.15234V1.36226H7.27344V0ZM7.27344 2.8857H6.39453V2.12398H7.27344V2.8857Z" fill="white"/>
</g>
<defs>
<clipPath id="clip0">
<rect width="15" height="13" fill="white"/>
</clipPath>
</defs>
</svg>
