<svg width="319" height="63" viewBox="0 0 319 63" fill="none" xmlns="http://www.w3.org/2000/svg">
<g filter="url(#filter0_d)">
<path d="M16.86 42.504C15.348 42.504 13.43 42.224 11.106 41.664C9.65 42.056 8.292 42.252 7.032 42.252C5.772 42.252 5.044 42.21 4.848 42.126C5.044 40.446 5.87 36.316 7.326 29.736C8.81 23.128 9.552 18.984 9.552 17.304C9.552 16.968 9.37 16.52 9.006 15.96C8.642 15.4 8.278 14.924 7.914 14.532L7.368 13.944L7.494 13.314C11.162 12.558 15.11 12.18 19.338 12.18C21.662 12.18 23.566 12.74 25.05 13.86C26.562 14.952 27.318 16.492 27.318 18.48C27.318 22.316 24.98 24.976 20.304 26.46C22.18 26.684 23.748 27.398 25.008 28.602C26.296 29.778 26.94 31.444 26.94 33.6C26.94 36.232 25.988 38.374 24.084 40.026C22.18 41.678 19.772 42.504 16.86 42.504ZM16.104 27.594C15.32 27.594 14.62 27.664 14.004 27.804C12.8 33.124 12.03 36.834 11.694 38.934C12.394 39.41 13.486 39.648 14.97 39.648C16.482 39.648 17.77 39.06 18.834 37.884C19.898 36.68 20.43 34.958 20.43 32.718C20.43 29.302 18.988 27.594 16.104 27.594ZM18.456 14.784C17.392 14.784 16.762 14.882 16.566 15.078C16.174 17.598 15.53 20.902 14.634 24.99C15.754 24.99 16.538 24.92 16.986 24.78C17.434 24.64 17.826 24.458 18.162 24.234C18.526 24.01 18.932 23.66 19.38 23.184C20.36 22.148 20.85 20.496 20.85 18.228C20.85 15.932 20.052 14.784 18.456 14.784ZM29.4105 38.85C29.4105 37.646 29.7745 35.602 30.5025 32.718C31.2305 29.806 31.5945 28.028 31.5945 27.384C31.5945 26.712 31.0905 25.83 30.0825 24.738L30.1245 24.192C32.0285 23.8 34.5345 23.604 37.6425 23.604C37.7825 23.968 37.8525 24.626 37.8525 25.578C37.8525 26.53 37.4605 28.56 36.6765 31.668C35.8925 34.776 35.5005 36.708 35.5005 37.464C35.5005 38.22 35.7805 38.598 36.3405 38.598C37.1525 38.598 38.0905 38.304 39.1545 37.716C39.2665 37.044 39.5465 35.756 39.9945 33.852C41.0025 29.372 41.5065 26.166 41.5065 24.234C42.4865 23.842 44.2505 23.646 46.7985 23.646H47.5965C47.5965 24.962 47.2045 27.538 46.4205 31.374C45.6365 35.182 45.2445 37.422 45.2445 38.094C45.2445 38.738 45.3845 39.06 45.6645 39.06C45.8325 39.06 46.6305 38.724 48.0585 38.052L48.8565 39.396C46.3645 41.468 44.1805 42.504 42.3045 42.504C41.4085 42.504 40.6385 42.252 39.9945 41.748C39.3785 41.244 39.0285 40.586 38.9445 39.774C36.6765 41.622 34.6185 42.546 32.7705 42.546C31.7905 42.546 30.9785 42.224 30.3345 41.58C29.7185 40.936 29.4105 40.026 29.4105 38.85ZM55.7454 46.536C54.8214 47.096 54.3594 47.642 54.3594 48.174C54.3594 48.706 54.6534 48.972 55.2414 48.972C55.8574 48.972 56.5434 48.678 57.2994 48.09C58.0554 47.53 58.6854 46.606 59.1894 45.318C57.8454 45.57 56.6974 45.976 55.7454 46.536ZM53.7294 42.168C51.3774 42.168 50.2014 40.88 50.2014 38.304C50.2014 37.688 50.4814 35.91 51.0414 32.97C51.6014 30.03 51.8814 27.58 51.8814 25.62C51.8814 25.2 51.8254 24.808 51.7134 24.444C53.2254 23.856 55.2974 23.562 57.9294 23.562C58.0694 23.954 58.1394 24.626 58.1394 25.578C58.1394 26.53 57.8314 28.504 57.2154 31.5C56.5994 34.496 56.2914 36.428 56.2914 37.296C56.2914 38.164 56.6554 38.598 57.3834 38.598C58.2514 38.598 59.3014 38.164 60.5334 37.296C60.6734 35.644 61.2334 31.29 62.2134 24.234C63.1934 23.842 64.9574 23.646 67.5054 23.646H68.3034C67.7714 25.746 67.2534 28.77 66.7494 32.718C66.2454 36.666 65.8394 39.41 65.5314 40.95C64.9434 44.03 63.8514 46.536 62.2554 48.468C60.6874 50.428 58.6294 51.408 56.0814 51.408C55.0734 51.408 54.1494 51.142 53.3094 50.61C52.4974 50.078 52.0914 49.392 52.0914 48.552C52.0914 47.432 52.7774 46.41 54.1494 45.486C55.5214 44.562 57.3694 43.848 59.6934 43.344C59.9454 42.112 60.1414 40.922 60.2814 39.774C58.0134 41.37 55.8294 42.168 53.7294 42.168ZM69.0608 34.734C69.0608 31.234 70.1108 28.476 72.2108 26.46C74.3388 24.416 76.7468 23.394 79.4348 23.394C81.0868 23.394 82.4448 23.8 83.5088 24.612C84.5728 25.424 85.1048 26.516 85.1048 27.888C85.1048 29.232 84.7548 30.366 84.0548 31.29C83.3828 32.214 82.5568 32.928 81.5768 33.432C79.5888 34.412 77.7688 35.028 76.1168 35.28L75.1088 35.406C75.3048 38.038 76.3828 39.354 78.3428 39.354C79.0148 39.354 79.7288 39.186 80.4848 38.85C81.2408 38.514 81.8288 38.178 82.2488 37.842L82.8788 37.338L83.8868 38.682C83.6628 38.99 83.2148 39.396 82.5428 39.9C81.8708 40.404 81.2408 40.824 80.6528 41.16C79.0288 42.056 77.2508 42.504 75.3188 42.504C73.3868 42.504 71.8608 41.818 70.7407 40.446C69.6208 39.074 69.0608 37.17 69.0608 34.734ZM75.0668 33.348C76.4948 33.096 77.6288 32.494 78.4688 31.542C79.3088 30.59 79.7288 29.358 79.7288 27.846C79.7288 26.334 79.2808 25.578 78.3848 25.578C77.3208 25.578 76.4948 26.488 75.9068 28.308C75.3468 30.1 75.0668 31.78 75.0668 33.348ZM86.8441 42.126H86.5501C86.4941 41.902 86.4661 41.398 86.4661 40.614C86.4661 39.802 86.8441 37.646 87.6001 34.146C88.3561 30.646 88.7341 28.644 88.7341 28.14C88.7341 27.272 88.3421 26.32 87.5581 25.284L87.1801 24.78L87.2221 24.234C88.7341 23.814 91.1561 23.604 94.4881 23.604C94.8241 24.332 94.9921 25.354 94.9921 26.67C95.3001 26.166 95.9441 25.494 96.9241 24.654C97.9041 23.814 98.9121 23.394 99.9481 23.394C101.46 23.394 102.216 24.71 102.216 27.342C102.076 27.51 101.88 27.734 101.628 28.014C101.404 28.266 100.928 28.63 100.2 29.106C99.5001 29.582 98.8141 29.876 98.1421 29.988C98.1141 29.988 97.8761 29.61 97.4281 28.854C96.9801 28.098 96.6441 27.72 96.4201 27.72C95.7201 27.972 95.1041 28.392 94.5721 28.98C93.2841 34.776 92.6401 38.528 92.6401 40.236C92.6401 40.852 92.6541 41.286 92.6821 41.538C91.7021 41.93 89.7561 42.126 86.8441 42.126ZM105.839 11.256C108.023 11.256 109.115 12.068 109.115 13.692C109.115 15.288 107.953 18.69 105.629 23.898L103.781 23.604L104.579 11.34C105.139 11.284 105.559 11.256 105.839 11.256ZM123.345 36.498C123.345 38.262 122.561 39.704 120.993 40.824C119.453 41.944 117.689 42.504 115.701 42.504C113.713 42.504 112.131 42.084 110.955 41.244C109.807 40.404 109.233 39.662 109.233 39.018C109.233 38.626 109.723 37.996 110.703 37.128C111.683 36.232 112.509 35.686 113.181 35.49C114.581 36.526 115.729 38.164 116.625 40.404C117.661 40.32 118.179 39.83 118.179 38.934C118.179 37.646 117.045 35.826 114.777 33.474C112.509 31.094 111.375 29.204 111.375 27.804C111.375 26.404 112.005 25.326 113.265 24.57C114.525 23.786 116.037 23.394 117.801 23.394C119.593 23.394 120.937 23.716 121.833 24.36C122.729 24.976 123.177 25.83 123.177 26.922C123.177 27.986 122.323 29.47 120.615 31.374C120.811 31.57 121.063 31.836 121.371 32.172C121.679 32.48 122.085 33.082 122.589 33.978C123.093 34.874 123.345 35.714 123.345 36.498ZM119.313 29.904C120.489 28.896 121.077 27.902 121.077 26.922C121.077 25.942 120.405 25.452 119.061 25.452C118.417 25.452 117.885 25.592 117.465 25.872C117.045 26.124 116.835 26.418 116.835 26.754C116.835 27.37 117.451 28.238 118.683 29.358L119.313 29.904ZM145.969 23.898C145.913 24.514 145.661 25.326 145.213 26.334C144.149 26.222 143.099 26.166 142.063 26.166H141.895C141.307 33.082 140.761 38.192 140.257 41.496C139.753 44.8 139.095 47.11 138.283 48.426C137.275 48.398 136.225 48.258 135.133 48.006C134.069 47.782 133.341 47.544 132.949 47.292C133.621 45.22 134.293 42.098 134.965 37.926C135.665 33.754 136.113 29.904 136.309 26.376C135.525 26.432 134.657 26.53 133.705 26.67C133.621 26.306 133.579 25.942 133.579 25.578C133.579 25.186 133.635 24.626 133.747 23.898H136.435C136.491 21.462 136.617 19.614 136.813 18.354C137.149 16.114 137.919 14.364 139.123 13.104C140.355 11.816 141.937 11.172 143.869 11.172C145.101 11.172 146.067 11.452 146.767 12.012C147.495 12.544 147.859 13.398 147.859 14.574C147.859 15.75 147.327 17.276 146.263 19.152C145.199 21 143.799 22.582 142.063 23.898H145.969ZM142.147 21.252C143.239 20.328 144.093 19.306 144.709 18.186C145.325 17.066 145.633 16.058 145.633 15.162C145.633 14.238 145.339 13.776 144.751 13.776C143.519 13.776 142.735 15.19 142.399 18.018C142.287 18.97 142.203 20.048 142.147 21.252ZM146.85 42.126H146.556C146.5 41.902 146.472 41.398 146.472 40.614C146.472 39.802 146.85 37.646 147.606 34.146C148.362 30.646 148.74 28.644 148.74 28.14C148.74 27.272 148.348 26.32 147.564 25.284L147.186 24.78L147.228 24.234C148.74 23.814 151.162 23.604 154.494 23.604C154.83 24.332 154.998 25.354 154.998 26.67C155.306 26.166 155.95 25.494 156.93 24.654C157.91 23.814 158.918 23.394 159.954 23.394C161.466 23.394 162.222 24.71 162.222 27.342C162.082 27.51 161.886 27.734 161.634 28.014C161.41 28.266 160.934 28.63 160.206 29.106C159.506 29.582 158.82 29.876 158.148 29.988C158.12 29.988 157.882 29.61 157.434 28.854C156.986 28.098 156.65 27.72 156.426 27.72C155.726 27.972 155.11 28.392 154.578 28.98C153.29 34.776 152.646 38.528 152.646 40.236C152.646 40.852 152.66 41.286 152.688 41.538C151.708 41.93 149.762 42.126 146.85 42.126ZM170.003 25.998C170.003 27.174 169.625 29.204 168.869 32.088C168.113 34.944 167.735 36.82 167.735 37.716C167.735 38.584 167.861 39.018 168.113 39.018C168.281 39.018 168.925 38.752 170.045 38.22L170.549 37.968L171.263 39.438C171.011 39.662 170.675 39.942 170.255 40.278C169.835 40.614 169.051 41.076 167.903 41.664C166.755 42.224 165.691 42.504 164.711 42.504C163.731 42.504 162.961 42.21 162.401 41.622C161.841 41.006 161.561 40.194 161.561 39.186C161.561 38.15 161.911 36.33 162.611 33.726C163.311 31.094 163.661 29.386 163.661 28.602C163.661 27.426 163.297 26.32 162.569 25.284L162.191 24.78L162.233 24.234C163.717 23.814 166.125 23.604 169.457 23.604C169.821 24.024 170.003 24.822 170.003 25.998ZM165.215 19.026C164.655 18.466 164.375 17.724 164.375 16.8C164.375 15.876 164.753 15.064 165.509 14.364C166.293 13.664 167.189 13.314 168.197 13.314C169.205 13.314 169.989 13.594 170.549 14.154C171.109 14.714 171.389 15.456 171.389 16.38C171.389 17.276 170.983 18.074 170.171 18.774C169.387 19.474 168.505 19.824 167.525 19.824C166.545 19.824 165.775 19.558 165.215 19.026ZM172.584 34.734C172.584 31.234 173.634 28.476 175.734 26.46C177.862 24.416 180.27 23.394 182.958 23.394C184.61 23.394 185.968 23.8 187.032 24.612C188.096 25.424 188.628 26.516 188.628 27.888C188.628 29.232 188.278 30.366 187.578 31.29C186.906 32.214 186.08 32.928 185.1 33.432C183.112 34.412 181.292 35.028 179.64 35.28L178.632 35.406C178.828 38.038 179.906 39.354 181.866 39.354C182.538 39.354 183.252 39.186 184.008 38.85C184.764 38.514 185.352 38.178 185.772 37.842L186.402 37.338L187.41 38.682C187.186 38.99 186.738 39.396 186.066 39.9C185.394 40.404 184.764 40.824 184.176 41.16C182.552 42.056 180.774 42.504 178.842 42.504C176.91 42.504 175.384 41.818 174.264 40.446C173.144 39.074 172.584 37.17 172.584 34.734ZM178.59 33.348C180.018 33.096 181.152 32.494 181.992 31.542C182.832 30.59 183.252 29.358 183.252 27.846C183.252 26.334 182.804 25.578 181.908 25.578C180.844 25.578 180.018 26.488 179.43 28.308C178.87 30.1 178.59 31.78 178.59 33.348ZM190.662 42.126H189.864C189.864 40.81 190.256 38.29 191.04 34.566C191.852 30.842 192.258 28.728 192.258 28.224C192.258 27.3 191.866 26.32 191.082 25.284L190.704 24.78L190.746 24.234C192.258 23.814 194.68 23.604 198.012 23.604C198.376 24.08 198.572 24.948 198.6 26.208C201.036 24.332 203.094 23.394 204.774 23.394C205.782 23.394 206.58 23.744 207.168 24.444C207.784 25.144 208.092 26.026 208.092 27.09C208.092 28.126 207.77 29.932 207.126 32.508C206.482 35.084 206.16 36.82 206.16 37.716C206.16 38.584 206.272 39.018 206.496 39.018C206.664 39.018 207.252 38.752 208.26 38.22L208.764 37.968L209.52 39.438C209.268 39.662 208.932 39.942 208.512 40.278C208.092 40.614 207.308 41.076 206.16 41.664C205.04 42.224 204.032 42.504 203.136 42.504C201.092 42.504 200.07 41.342 200.07 39.018C200.07 38.038 200.378 36.232 200.994 33.6C201.638 30.968 201.96 29.274 201.96 28.518C201.96 27.762 201.722 27.384 201.246 27.384C200.434 27.384 199.44 27.734 198.264 28.434C198.18 28.91 197.9 30.17 197.424 32.214C196.444 36.61 195.954 39.718 195.954 41.538C194.974 41.93 193.21 42.126 190.662 42.126ZM230.764 39.438C228.384 41.482 226.284 42.504 224.464 42.504C222.672 42.504 221.636 41.608 221.356 39.816C220.516 40.656 219.578 41.314 218.542 41.79C217.506 42.266 216.596 42.504 215.812 42.504C214.468 42.504 213.32 41.916 212.368 40.74C211.416 39.564 210.94 37.744 210.94 35.28C210.94 31.584 211.724 28.686 213.292 26.586C214.86 24.458 216.624 23.394 218.584 23.394C220.572 23.394 222.238 23.842 223.582 24.738C224.45 20.202 224.884 16.632 224.884 14.028L224.674 12.264C226.774 11.536 228.832 11.172 230.848 11.172C231.072 11.648 231.184 12.194 231.184 12.81C231.184 14.854 230.568 19.012 229.336 25.284C228.104 31.528 227.488 35.77 227.488 38.01C227.488 38.682 227.642 39.018 227.95 39.018C228.118 39.018 228.65 38.752 229.546 38.22L229.966 37.968L230.764 39.438ZM220.642 25.872C219.662 25.872 218.808 26.838 218.08 28.77C217.38 30.702 217.03 32.62 217.03 34.524C217.03 36.4 217.156 37.604 217.408 38.136C217.688 38.668 218.094 38.934 218.626 38.934C219.55 38.934 220.46 38.556 221.356 37.8C221.44 36.68 222.07 32.956 223.246 26.628C222.294 26.124 221.426 25.872 220.642 25.872Z" fill="white"/>
</g>
<g filter="url(#filter1_d)">
<path d="M276.544 15.8828C276.398 15.7367 276.197 15.6538 275.991 15.6538C275.785 15.6538 275.584 15.7367 275.438 15.8828C275.293 16.028 275.21 16.2289 275.21 16.4351C275.21 16.6406 275.293 16.8422 275.438 16.9876C275.584 17.1329 275.785 17.2165 275.991 17.2165C276.197 17.2165 276.398 17.1329 276.544 16.9876C276.689 16.8422 276.772 16.6407 276.772 16.4351C276.772 16.2289 276.689 16.028 276.544 15.8828Z" fill="white"/>
<path d="M258.599 34.2833C258.453 34.1372 258.252 34.0543 258.047 34.0543C257.841 34.0543 257.64 34.1372 257.494 34.2833C257.348 34.4285 257.266 34.6294 257.266 34.8356C257.266 35.0411 257.348 35.2426 257.494 35.388C257.64 35.5334 257.841 35.6169 258.047 35.6169C258.252 35.6169 258.453 35.5334 258.599 35.388C258.745 35.2427 258.827 35.0412 258.827 34.8356C258.827 34.6294 258.745 34.4285 258.599 34.2833Z" fill="white"/>
<path d="M278.436 18.4776C278.223 18.1024 277.746 17.9713 277.371 18.1846C276.996 18.3979 276.865 18.8749 277.078 19.25C279.399 23.3311 278.698 28.503 275.374 31.8269L274.782 32.4194C274.638 32.0438 274.417 31.6916 274.115 31.3895L266.087 23.3618C266.612 23.1035 267.097 22.7589 267.523 22.333L269.062 20.7933C269.368 20.4882 269.368 19.9934 269.062 19.6884C268.757 19.3833 268.263 19.3833 267.957 19.6884L266.418 21.2281C265.694 21.9514 264.733 22.3498 263.71 22.3498H260.632C260.425 22.3498 260.226 22.4321 260.079 22.5786L257.723 24.9348C257.024 25.6346 255.885 25.6346 255.185 24.9348C254.486 24.2352 254.486 23.0966 255.185 22.3969L260.565 17.0177C263.852 13.7302 268.984 13.0072 273.045 15.2595C273.422 15.4687 273.898 15.3327 274.107 14.9552C274.316 14.5779 274.18 14.1023 273.803 13.893C271.563 12.6509 268.924 12.1537 266.372 12.4937C263.984 12.8117 261.798 13.8118 260.006 15.3987C257.804 13.447 255.002 12.3798 252.034 12.3798C248.82 12.3798 245.798 13.6316 243.525 15.9045C241.252 18.1775 240 21.1998 240 24.4142C240 27.6287 241.252 30.6508 243.525 32.9238L243.819 33.2183C243.87 33.2694 243.927 33.3113 243.987 33.3453C244.04 34.0212 244.323 34.6825 244.839 35.1983C245.413 35.7723 246.167 36.0592 246.921 36.0592C246.96 36.0592 246.999 36.058 247.038 36.0564C247.037 36.0959 247.035 36.1355 247.035 36.1752C247.035 36.9616 247.341 37.701 247.898 38.2571C248.472 38.8312 249.225 39.1181 249.979 39.118C250.019 39.118 250.058 39.1168 250.097 39.1152C250.095 39.1548 250.094 39.1943 250.094 39.2341C250.094 40.0205 250.4 40.7598 250.956 41.3159C251.531 41.8899 252.284 42.1769 253.038 42.1769C253.078 42.1769 253.118 42.1756 253.157 42.1741C253.125 42.9671 253.411 43.7707 254.015 44.3749C254.571 44.931 255.311 45.2373 256.097 45.2373C256.884 45.2373 257.623 44.931 258.179 44.3749L259.271 43.2829L260.746 44.7577C261.302 45.3138 262.041 45.6201 262.828 45.6201C263.614 45.6201 264.354 45.3138 264.91 44.7577C265.521 44.1463 265.807 43.3306 265.767 42.5283C265.816 42.5307 265.865 42.5321 265.914 42.5321C266.668 42.5321 267.422 42.2452 267.996 41.6711C268.6 41.0673 268.886 40.2643 268.854 39.4716C268.894 39.4732 268.934 39.4745 268.973 39.4745C269.76 39.4745 270.499 39.1683 271.055 38.6122C271.659 38.0084 271.945 37.2054 271.913 36.4127C271.953 36.4143 271.992 36.4156 272.032 36.4156C272.819 36.4156 273.558 36.1094 274.114 35.5533C274.396 35.2709 274.609 34.9446 274.752 34.5964C274.829 34.5594 274.9 34.5101 274.963 34.4469L276.478 32.9318C280.299 29.1122 281.104 23.1683 278.436 18.4776ZM246.921 34.498C246.552 34.498 246.205 34.3543 245.944 34.0933C245.683 33.8323 245.539 33.4854 245.539 33.1163C245.539 32.7473 245.683 32.4003 245.944 32.1394L247.29 30.793C247.551 30.5319 247.898 30.3883 248.267 30.3883C248.636 30.3883 248.983 30.5319 249.244 30.793C249.783 31.3317 249.783 32.2082 249.244 32.7469L247.898 34.0934C247.637 34.3542 247.29 34.498 246.921 34.498ZM249.003 37.1523C248.742 36.8913 248.598 36.5443 248.598 36.1753C248.598 35.8062 248.742 35.4593 249.003 35.1984L250.349 33.8519C250.349 33.8519 250.349 33.8519 250.349 33.8518C250.61 33.5909 250.957 33.4471 251.326 33.4471C251.695 33.4471 252.042 33.5908 252.303 33.8518C252.842 34.3905 252.842 35.267 252.303 35.8057L250.957 37.1522C250.418 37.6909 249.541 37.6909 249.003 37.1523ZM252.062 40.2111C251.801 39.9502 251.657 39.6031 251.657 39.2341C251.657 38.8651 251.801 38.5181 252.062 38.2572L253.408 36.9107C253.408 36.9107 253.408 36.9107 253.408 36.9106C253.669 36.6497 254.016 36.5059 254.385 36.5059C254.754 36.5059 255.101 36.6496 255.362 36.9106C255.901 37.4494 255.901 38.3259 255.362 38.8646L254.015 40.2111C253.477 40.7498 252.6 40.7498 252.062 40.2111ZM258.421 41.9236L257.074 43.2701C256.813 43.5311 256.466 43.6748 256.097 43.6748C255.728 43.6748 255.381 43.5312 255.12 43.2701C254.582 42.7313 254.582 41.8548 255.12 41.3162L256.467 39.9697C256.467 39.9697 256.467 39.9697 256.467 39.9696C256.728 39.7087 257.075 39.5649 257.444 39.5649C257.813 39.5649 258.16 39.7086 258.421 39.9696C258.682 40.2305 258.826 40.5776 258.826 40.9466C258.826 41.3158 258.682 41.6627 258.421 41.9236ZM273.01 34.4484C272.749 34.7094 272.402 34.853 272.033 34.853C271.664 34.853 271.317 34.7094 271.056 34.4484L267.804 31.1962C267.803 31.1961 267.803 31.196 267.803 31.1959L264.745 28.1373C264.439 27.8322 263.945 27.8322 263.64 28.1373C263.335 28.4423 263.335 28.9371 263.64 29.2422L269.951 35.5531C270.489 36.0919 270.489 36.9684 269.951 37.5071C269.69 37.7681 269.343 37.9118 268.974 37.9118C268.605 37.9118 268.258 37.7681 267.997 37.5071L261.686 31.1961C261.381 30.8911 260.886 30.8911 260.581 31.1961C260.276 31.5012 260.276 31.9959 260.581 32.3011L263.639 35.3593C263.639 35.3595 263.639 35.3598 263.64 35.3601L266.892 38.6121C267.431 39.1509 267.431 40.0275 266.892 40.5662C266.353 41.1049 265.476 41.1049 264.938 40.5662L261.686 37.314C261.626 37.2539 261.558 37.2061 261.486 37.1697L260.559 36.2421C260.253 35.9371 259.759 35.9371 259.454 36.2421C259.148 36.5472 259.148 37.0419 259.454 37.3471L263.805 41.6987C264.344 42.2375 264.344 43.114 263.805 43.6526C263.544 43.9137 263.197 44.0573 262.828 44.0573C262.459 44.0573 262.112 43.9137 261.851 43.6526L260.195 41.9968C260.322 41.6658 260.388 41.3113 260.388 40.9465C260.388 40.1601 260.082 39.4207 259.526 38.8646C258.97 38.3085 258.23 38.0023 257.444 38.0023C257.404 38.0023 257.365 38.0036 257.325 38.0052C257.357 37.2125 257.071 36.4095 256.467 35.8057C255.911 35.2496 255.172 34.9434 254.385 34.9434C254.345 34.9434 254.306 34.9447 254.266 34.9462C254.298 34.1536 254.012 33.3506 253.408 32.7468C252.852 32.1907 252.113 31.8844 251.326 31.8844C251.287 31.8844 251.247 31.8858 251.208 31.8873C251.239 31.0947 250.953 30.2917 250.349 29.6879C249.201 28.5399 247.333 28.54 246.185 29.6879L244.839 31.0343C244.669 31.2041 244.525 31.39 244.406 31.5867C242.57 29.6374 241.563 27.1033 241.563 24.4141C241.563 21.6169 242.652 18.9872 244.63 17.0094C246.608 15.0316 249.238 13.9423 252.035 13.9423C254.577 13.9423 256.98 14.8419 258.882 16.4905L254.081 21.2919C253.447 21.926 253.097 22.7691 253.097 23.6658C253.097 24.5626 253.447 25.4056 254.081 26.0398C254.735 26.6942 255.595 27.0215 256.455 27.0215C257.314 27.0215 258.174 26.6943 258.829 26.0398L260.956 23.9123H263.71C263.938 23.9123 264.163 23.8967 264.385 23.8691L273.01 32.4942C273.548 33.0332 273.548 33.9098 273.01 34.4484Z" fill="white"/>
</g>
<defs>
<filter id="filter0_d" x="0.8479" y="11.172" width="234.336" height="48.236" filterUnits="userSpaceOnUse" color-interpolation-filters="sRGB">
<feFlood flood-opacity="0" result="BackgroundImageFix"/>
<feColorMatrix in="SourceAlpha" type="matrix" values="0 0 0 0 0 0 0 0 0 0 0 0 0 0 0 0 0 0 127 0"/>
<feOffset dy="4"/>
<feGaussianBlur stdDeviation="2"/>
<feColorMatrix type="matrix" values="0 0 0 0 0 0 0 0 0 0 0 0 0 0 0 0 0 0 0.25 0"/>
<feBlend mode="normal" in2="BackgroundImageFix" result="effect1_dropShadow"/>
<feBlend mode="normal" in="SourceGraphic" in2="effect1_dropShadow" result="shape"/>
</filter>
<filter id="filter1_d" x="236" y="9" width="48" height="48" filterUnits="userSpaceOnUse" color-interpolation-filters="sRGB">
<feFlood flood-opacity="0" result="BackgroundImageFix"/>
<feColorMatrix in="SourceAlpha" type="matrix" values="0 0 0 0 0 0 0 0 0 0 0 0 0 0 0 0 0 0 127 0"/>
<feOffset dy="4"/>
<feGaussianBlur stdDeviation="2"/>
<feColorMatrix type="matrix" values="0 0 0 0 0 0 0 0 0 0 0 0 0 0 0 0 0 0 0.25 0"/>
<feBlend mode="normal" in2="BackgroundImageFix" result="effect1_dropShadow"/>
<feBlend mode="normal" in="SourceGraphic" in2="effect1_dropShadow" result="shape"/>
</filter>
</defs>
</svg>
