<svg width="48" height="32" viewBox="0 0 48 32" fill="none" xmlns="http://www.w3.org/2000/svg">
<g id="mastercard-color_large">
<rect id="card_bg" y="0.000183105" width="48" height="32" rx="4" fill="#F2F0EC"/>
<g id="mastercard">
<g id="Group" opacity="0.01">
<rect id="Rectangle" x="4.65002" y="3.20018" width="38.71" height="25.6" fill="white"/>
</g>
<rect id="Rectangle_2" x="18.9" y="7.66018" width="10.21" height="16.68" fill="#F26122"/>
<path id="Path" d="M20 16.0002C19.9831 12.7537 21.4577 9.67923 24 7.66018C19.6502 4.23948 13.4019 4.7362 9.64729 8.80119C5.89264 12.8662 5.89264 19.1342 9.64729 23.1992C13.4019 27.2642 19.6502 27.7609 24 24.3402C21.4577 22.3211 19.9831 19.2466 20 16.0002Z" fill="#EA1D25"/>
<path id="Shape" fill-rule="evenodd" clip-rule="evenodd" d="M40.1401 22.2302V22.5702H40.0801V22.2302H39.9401V22.1602H40.2901V22.2302H40.1401ZM40.8201 22.1602V22.5702H40.7501V22.2602L40.6401 22.5302H40.5601L40.4401 22.2602V22.5702H40.3701V22.1602H40.4701L40.6001 22.4502L40.7201 22.1602H40.8201Z" fill="#F69E1E"/>
<path id="Path_2" d="M41.16 16.0002C41.1574 20.0595 38.8389 23.7616 35.1879 25.536C31.5369 27.3104 27.1935 26.8462 24 24.3402C28.6001 20.7181 29.3967 14.0545 25.78 9.45018C25.2616 8.78345 24.6638 8.18235 24 7.66018C27.1935 5.15417 31.5369 4.68992 35.1879 6.46435C38.8389 8.23878 41.1574 11.9408 41.16 16.0002Z" fill="#F69E1E"/>
</g>
</g>
</svg>
