<svg width="40" height="42" viewBox="0 0 40 42" fill="none" xmlns="http://www.w3.org/2000/svg">
<path d="M22.6668 37.737H8.22011C8.19153 37.737 8.16323 37.731 8.1369 37.7193C8.11058 37.7076 8.08676 37.6905 8.06686 37.669C8.04696 37.6474 8.03138 37.6219 8.02106 37.5939C8.01074 37.5659 8.00589 37.536 8.00678 37.506V22.176C8.55942 22.4415 9.14921 22.6117 9.75345 22.68V35.7C9.75345 35.8857 9.82368 36.0637 9.94871 36.195C10.0737 36.3263 10.2433 36.4 10.4201 36.4H18.5934C18.7703 36.4 18.9398 36.3263 19.0648 36.195C19.1899 36.0637 19.2601 35.8857 19.2601 35.7C19.2601 35.5144 19.1899 35.3363 19.0648 35.205C18.9398 35.0738 18.7703 35 18.5934 35H11.0601V22.68C12.1243 22.5569 13.1364 22.1313 13.9874 21.4492C14.8385 20.767 15.4962 19.854 15.8898 18.8085C16.2834 17.7631 16.398 16.6247 16.2213 15.5159C16.0445 14.4071 15.5832 13.3699 14.8868 12.516H28.9668V21.917C28.9668 22.1027 29.037 22.2807 29.162 22.412C29.2871 22.5433 29.4566 22.617 29.6334 22.617C29.8103 22.617 29.9798 22.5433 30.1048 22.412C30.2299 22.2807 30.3001 22.1027 30.3001 21.917V11.83C30.3001 11.6444 30.2299 11.4663 30.1048 11.335C29.9798 11.2038 29.8103 11.13 29.6334 11.13H13.3334C12.5276 10.6453 11.6229 10.3702 10.6951 10.3276C9.76728 10.285 8.84322 10.4761 8.00011 10.885V8.16202C7.99922 8.13202 8.00408 8.10214 8.0144 8.07415C8.02472 8.04616 8.04029 8.02063 8.06019 7.99909C8.08009 7.97754 8.10391 7.96041 8.13024 7.94872C8.15656 7.93702 8.18486 7.93101 8.21344 7.93102H14.9934V9.10002C14.9934 9.28567 15.0637 9.46372 15.1887 9.595C15.3137 9.72627 15.4833 9.80002 15.6601 9.80002H24.3934C24.5703 9.80002 24.7398 9.72627 24.8648 9.595C24.9899 9.46372 25.0601 9.28567 25.0601 9.10002V7.93102H31.8068C31.8354 7.93101 31.8637 7.93702 31.89 7.94872C31.9163 7.96041 31.9401 7.97754 31.96 7.99909C31.9799 8.02063 31.9955 8.04616 32.0058 8.07415C32.0161 8.10214 32.021 8.13202 32.0201 8.16202V22.575C32.0201 22.7607 32.0903 22.9387 32.2154 23.07C32.3404 23.2013 32.51 23.275 32.6868 23.275C32.8636 23.275 33.0332 23.2013 33.1582 23.07C33.2832 22.9387 33.3534 22.7607 33.3534 22.575V8.16202C33.3517 7.73745 33.1903 7.33079 32.9044 7.03056C32.6184 6.73034 32.2311 6.56086 31.8268 6.55902H25.0334V6.30002C25.0334 6.11437 24.9632 5.93632 24.8382 5.80505C24.7132 5.67377 24.5436 5.60002 24.3668 5.60002H22.8534V4.90002C22.8447 4.34916 22.6301 3.82396 22.256 3.43767C21.8819 3.05138 21.3782 2.83495 20.8534 2.83502H19.1401C18.6155 2.8442 18.1153 3.0695 17.7474 3.46234C17.3795 3.85517 17.1734 4.38408 17.1734 4.93502V5.63502H15.6468C15.47 5.63502 15.3004 5.70877 15.1754 5.84005C15.0503 5.97132 14.9801 6.14937 14.9801 6.33502V6.56602H8.22011C8.01819 6.56325 7.81774 6.60238 7.63026 6.68117C7.44279 6.75997 7.27198 6.87687 7.12765 7.02516C6.98332 7.17346 6.8683 7.35023 6.78921 7.54532C6.71013 7.74042 6.66852 7.95 6.66678 8.16202V11.725C5.98569 12.3052 5.43651 13.0377 5.05929 13.869C4.68208 14.7004 4.48633 15.6096 4.48633 16.5305C4.48633 17.4514 4.68208 18.3607 5.05929 19.192C5.43651 20.0234 5.98569 20.7559 6.66678 21.336V37.506C6.66677 37.9318 6.82741 38.3403 7.11352 38.642C7.39964 38.9437 7.78794 39.1142 8.19344 39.116H22.6668C22.8436 39.116 23.0132 39.0423 23.1382 38.911C23.2632 38.7797 23.3334 38.6017 23.3334 38.416C23.3334 38.2304 23.2632 38.0523 23.1382 37.921C23.0132 37.7898 22.8436 37.716 22.6668 37.716V37.737ZM19.1401 4.26302H20.8868C21.0636 4.26302 21.2332 4.33677 21.3582 4.46805C21.4832 4.59932 21.5534 4.77737 21.5534 4.96302V5.66302H18.4868V4.96302C18.4867 4.77977 18.5551 4.60381 18.6773 4.47293C18.7995 4.34205 18.9656 4.26669 19.1401 4.26302ZM16.3001 7.00002H23.7268V8.40002H16.3001V7.00002ZM5.82011 16.534C5.8188 15.5818 6.08635 14.6506 6.58895 13.858C7.09155 13.0654 7.80664 12.447 8.64385 12.081C9.48106 11.715 10.4028 11.6178 11.2926 11.8017C12.1824 11.9856 13.0003 12.4424 13.643 13.1142C14.2856 13.7861 14.7242 14.6429 14.9032 15.5763C15.0822 16.5098 14.9937 17.4781 14.6488 18.3587C14.3038 19.2394 13.718 19.9929 12.9654 20.5241C12.2127 21.0553 11.327 21.3403 10.4201 21.343C9.20304 21.3449 8.03501 20.8395 7.17253 19.9378C6.31006 19.0362 5.82364 17.8119 5.82011 16.534Z" fill="#E4E4E4"/>
<path d="M30.2 25.053C29.236 25.058 28.284 25.2774 27.4067 25.697L27.2733 25.459C27.1855 25.3026 27.0432 25.1882 26.8765 25.1398C26.7098 25.0915 26.5318 25.1131 26.38 25.2C25.2215 25.908 24.2599 26.9222 23.5909 28.1418C22.9218 29.3613 22.5687 30.7436 22.5667 32.151C22.5667 32.3366 22.6369 32.5147 22.7619 32.646C22.8869 32.7772 23.0565 32.851 23.2333 32.851H23.48C23.6078 34.2208 24.1118 35.5221 24.9307 36.5967C25.7497 37.6714 26.8482 38.4733 28.0929 38.9048C29.3376 39.3363 30.6749 39.3789 31.9422 39.0274C33.2096 38.676 34.3524 37.9456 35.2319 36.9251C36.1114 35.9045 36.6896 34.6377 36.8964 33.2786C37.1031 31.9195 36.9294 30.5266 36.3965 29.2692C35.8635 28.0117 34.9942 26.9439 33.8942 26.1954C32.7942 25.4469 31.5108 25.0501 30.2 25.053ZM26.4867 26.775L29.0667 31.5H23.9133C24.0022 30.5668 24.2773 29.6638 24.7207 28.8497C25.1641 28.0356 25.7658 27.3287 26.4867 26.775ZM30.2 37.891C28.8663 37.8891 27.5794 37.3747 26.5822 36.4449C25.5849 35.5152 24.9462 34.2343 24.7867 32.844H30.2C30.3132 32.8401 30.4236 32.8061 30.5208 32.7449C30.618 32.6838 30.6988 32.5977 30.7555 32.4948C30.8122 32.3918 30.843 32.2753 30.845 32.1564C30.8469 32.0375 30.82 31.92 30.7667 31.815L28.06 26.915C28.806 26.5687 29.6163 26.4023 30.4316 26.428C31.2468 26.4537 32.0463 26.6709 32.7711 27.0635C33.4959 27.4562 34.1278 28.0144 34.6202 28.6971C35.1127 29.3798 35.4532 30.1696 35.6168 31.0086C35.7803 31.8476 35.7628 32.7144 35.5655 33.5454C35.3682 34.3764 34.9961 35.1504 34.4765 35.8105C33.9569 36.4707 33.3031 37.0002 32.5631 37.3602C31.823 37.7203 31.0155 37.9016 30.2 37.891Z" fill="#E4E4E4"/>
<path d="M16.22 24.143C16.0957 24.0168 15.9295 23.9463 15.7567 23.9463C15.5838 23.9463 15.4176 24.0168 15.2933 24.143L13.3333 26.173C13.2132 26.3035 13.146 26.478 13.146 26.6595C13.146 26.841 13.2132 27.0155 13.3333 27.146C13.3927 27.2111 13.4641 27.2627 13.5433 27.2976C13.6224 27.3326 13.7075 27.35 13.7933 27.349C13.9682 27.3482 14.1358 27.2753 14.26 27.146L15.7267 25.606L17.06 27.006C17.1843 27.1322 17.3504 27.2027 17.5233 27.2027C17.6962 27.2027 17.8623 27.1322 17.9867 27.006L20.5 24.36L21.6467 25.564C21.771 25.6902 21.9371 25.7607 22.11 25.7607C22.2829 25.7607 22.449 25.6902 22.5733 25.564L26.6667 21.329C26.7868 21.1985 26.854 21.024 26.854 20.8425C26.854 20.661 26.7868 20.4865 26.6667 20.356C26.5423 20.2298 26.3762 20.1593 26.2033 20.1593C26.0304 20.1593 25.8643 20.2298 25.74 20.356L22.1533 24.129L21.0067 22.925C20.8823 22.7988 20.7162 22.7283 20.5433 22.7283C20.3704 22.7283 20.2043 22.7988 20.08 22.925L17.56 25.571L16.22 24.143Z" fill="#E4E4E4"/>
<path d="M8.62006 17.192C8.81941 17.3144 9.04014 17.3936 9.26916 17.4249C9.49818 17.4561 9.73085 17.4388 9.95339 17.374L11.2201 17.017C11.2758 17.0006 11.3342 16.9965 11.3916 17.0049C11.449 17.0133 11.504 17.0341 11.5534 17.066C11.6035 17.0937 11.6473 17.1325 11.6818 17.1796C11.7163 17.2267 11.7407 17.2811 11.7534 17.339C11.7841 17.4569 11.7691 17.5827 11.7116 17.689C11.6541 17.7953 11.5589 17.8733 11.4467 17.906L9.54672 18.438C9.40615 18.4942 9.2878 18.5986 9.2109 18.7344C9.13401 18.8701 9.10309 19.0292 9.12317 19.1857C9.14325 19.3422 9.21315 19.487 9.32152 19.5965C9.42988 19.7061 9.57033 19.7739 9.72006 19.789C9.77339 19.789 10.5201 19.586 10.5201 19.586L10.5801 19.81C10.6186 19.9544 10.7003 20.0821 10.8131 20.1741C10.9259 20.2661 11.0639 20.3176 11.2067 20.321C11.2641 20.3312 11.3227 20.3312 11.3801 20.321C11.5451 20.2703 11.6851 20.1546 11.7708 19.9981C11.8566 19.8415 11.8814 19.6563 11.8401 19.481L11.7867 19.257C12.0108 19.197 12.2212 19.0908 12.4059 18.9447C12.5906 18.7986 12.7458 18.6154 12.8625 18.4058C12.9792 18.1962 13.0552 17.9644 13.0859 17.7237C13.1166 17.4831 13.1016 17.2384 13.0415 17.0039C12.9815 16.7695 12.8778 16.5498 12.7363 16.3578C12.5948 16.1658 12.4184 16.0051 12.2173 15.8852C12.0162 15.7653 11.7945 15.6885 11.5649 15.6593C11.3354 15.6301 11.1026 15.649 10.8801 15.715L9.62006 16.072C9.50797 16.1041 9.3884 16.089 9.28672 16.03C9.18655 15.9675 9.11269 15.8675 9.08006 15.75C9.0516 15.6322 9.06853 15.5073 9.12719 15.4024C9.18584 15.2976 9.28149 15.2213 9.39339 15.19L11.2867 14.651C11.453 14.6018 11.5946 14.4867 11.6817 14.33C11.7687 14.1733 11.7944 13.9872 11.7534 13.811C11.7324 13.7204 11.6944 13.635 11.6416 13.56C11.5888 13.4851 11.5222 13.4219 11.4458 13.3743C11.3694 13.3267 11.2847 13.2956 11.1967 13.2828C11.1087 13.2701 11.0192 13.2759 10.9334 13.3L10.3067 13.482L10.2467 13.258C10.1798 13.1101 10.0656 12.9915 9.924 12.9228C9.78239 12.8542 9.62234 12.8398 9.4717 12.8823C9.32107 12.9247 9.18937 13.0213 9.09954 13.1552C9.00971 13.2891 8.96743 13.4518 8.98006 13.615L9.04006 13.839C8.7064 13.933 8.40678 14.1288 8.1791 14.4016C7.95142 14.6744 7.8059 15.012 7.76095 15.3717C7.71599 15.7313 7.77362 16.0969 7.92654 16.4222C8.07946 16.7474 8.3208 17.0178 8.62006 17.199V17.192Z" fill="#E4E4E4"/>
<path d="M26.22 14.7H18.36C18.1832 14.7 18.0136 14.7738 17.8886 14.905C17.7636 15.0363 17.6934 15.2144 17.6934 15.4C17.6934 15.5857 17.7636 15.7637 17.8886 15.895C18.0136 16.0263 18.1832 16.1 18.36 16.1H26.22C26.3968 16.1 26.5664 16.0263 26.6914 15.895C26.8165 15.7637 26.8867 15.5857 26.8867 15.4C26.8867 15.2144 26.8165 15.0363 26.6914 14.905C26.5664 14.7738 26.3968 14.7 26.22 14.7Z" fill="#E4E4E4"/>
<path d="M26.2199 16.989H21.4132C21.2364 16.989 21.0669 17.0628 20.9418 17.194C20.8168 17.3253 20.7466 17.5034 20.7466 17.689C20.7466 17.8747 20.8168 18.0527 20.9418 18.184C21.0669 18.3153 21.2364 18.389 21.4132 18.389H26.2199C26.3967 18.389 26.5663 18.3153 26.6913 18.184C26.8163 18.0527 26.8866 17.8747 26.8866 17.689C26.8866 17.5034 26.8163 17.3253 26.6913 17.194C26.5663 17.0628 26.3967 16.989 26.2199 16.989Z" fill="#E4E4E4"/>
</svg>
