<svg width="38" height="38" viewBox="0 0 38 38" fill="none" xmlns="http://www.w3.org/2000/svg">
<path d="M29.6401 10.64C30.8993 10.64 31.9201 9.6192 31.9201 8.35999C31.9201 7.10078 30.8993 6.07999 29.6401 6.07999C28.3809 6.07999 27.3601 7.10078 27.3601 8.35999C27.3601 9.6192 28.3809 10.64 29.6401 10.64Z" stroke="#E4E4E4" stroke-width="2" stroke-miterlimit="10" stroke-linecap="round"/>
<path d="M35.72 4.18C35.72 3.13044 34.8695 2.28 33.82 2.28C33.7014 2.28 22.5142 2.28152 22.5142 2.28152C21.5034 2.28152 20.5359 2.22832 19.9751 2.7892L2.70102 20.0625C2.13938 20.6234 2.13938 21.5338 2.70102 22.0947L15.9053 35.299C16.4661 35.8598 17.3766 35.8598 17.9375 35.299L35.2108 18.0249C35.7717 17.4648 35.7185 16.5201 35.7185 15.4865C35.7185 15.4865 35.72 4.29856 35.72 4.18Z" stroke="#E4E4E4" stroke-width="2" stroke-miterlimit="10" stroke-linecap="round"/>
<path d="M14.5228 20.8574C14.5274 21.511 14.7379 22.1304 15.1536 22.7126L18.4649 19.4013C18.132 18.8518 17.8698 18.3525 17.6783 17.9026C17.4853 17.4511 17.3743 17.0316 17.3401 16.6394C17.3074 16.248 17.3698 15.8734 17.5286 15.5154C17.6867 15.1567 17.9489 14.7942 18.3152 14.4271C18.6899 14.0524 19.1003 13.7758 19.5457 13.5964C19.991 13.417 20.4432 13.3274 20.9015 13.3274C21.3598 13.3274 21.8112 13.4163 22.2573 13.5964C22.7027 13.775 23.1169 14.0319 23.5007 14.3648L24.3253 13.5402L25.0123 14.228L24.1748 15.0655C24.7661 15.8232 25.0534 16.6098 25.0374 17.426C25.0207 18.2423 24.7289 19.1011 24.1627 20.0002L23.1009 18.9384C23.7583 17.9466 23.7758 16.9974 23.1511 16.09L20.0769 19.1642L20.6264 20.1126C20.7518 20.3216 20.8741 20.5907 20.9957 20.9198C21.1158 21.2481 21.1888 21.6083 21.2139 22.0005C21.2389 22.3911 21.1873 22.7977 21.0581 23.2188C20.9289 23.6398 20.672 24.0411 20.2889 24.4241C19.8808 24.8322 19.4499 25.1264 18.9954 25.305C18.5417 25.4843 18.0789 25.5679 17.6092 25.555C17.138 25.5421 16.6698 25.4364 16.2024 25.2366C15.7365 25.0359 15.2866 24.7532 14.8534 24.3876L13.8289 25.4121L13.1411 24.7251L14.1656 23.6998C13.4162 22.7833 13.0431 21.8318 13.0476 20.8445C13.0514 19.8573 13.458 18.8928 14.2659 17.9512L15.3276 19.0129C14.788 19.589 14.519 20.2038 14.5228 20.8574ZM16.6098 23.9195C16.8727 24.0487 17.1395 24.1216 17.4161 24.1376C17.6905 24.1543 17.9656 24.1042 18.2407 23.9879C18.5151 23.8716 18.7864 23.6801 19.0532 23.4133C19.2933 23.1716 19.4544 22.9277 19.5342 22.6814C19.6133 22.436 19.6399 22.1844 19.6148 21.926C19.5897 21.6676 19.516 21.3993 19.3959 21.1196C19.2759 20.84 19.1352 20.5557 18.9772 20.2646L15.8414 23.4004C16.0907 23.6162 16.3476 23.7903 16.6098 23.9195ZM21.052 14.7782C20.5276 14.7448 20.0267 14.9652 19.5525 15.4402C19.3359 15.6568 19.1862 15.8779 19.1026 16.1029C19.019 16.3271 18.9901 16.5566 19.0144 16.7892C19.0395 17.0232 19.1018 17.2642 19.2021 17.5142C19.3025 17.7642 19.4271 18.0226 19.5768 18.2886L22.5013 15.3649C22.059 15.007 21.5771 14.8109 21.052 14.7782Z" fill="#E4E4E4"/>
</svg>
