<svg width="48" height="32" viewBox="0 0 48 32" fill="none" xmlns="http://www.w3.org/2000/svg">
<g id="visa-color_large">
<rect id="card_bg" y="0.000183105" width="48" height="32" rx="4" fill="#2A2A6C"/>
<path id="visa-logo" fill-rule="evenodd" clip-rule="evenodd" d="M30.3499 17.6702C30.356 16.1454 29.0985 15.4869 28.1226 14.9758C27.5048 14.6523 26.9999 14.3878 26.9999 14.0002C26.9999 13.6702 27.3199 13.3202 27.9999 13.2302C28.8092 13.1501 29.625 13.2918 30.3599 13.6402L30.7799 11.6402C30.0635 11.3715 29.305 11.2327 28.5399 11.2302C26.1799 11.2302 24.5399 12.4902 24.5399 14.2902C24.5399 15.6202 25.7299 16.3602 26.6299 16.8002C27.5299 17.2402 27.8799 17.5502 27.8699 17.9502C27.8699 18.5702 27.1299 18.8502 26.4399 18.8602C25.5888 18.8711 24.7489 18.6646 23.9999 18.2602L23.5699 20.2602C24.4174 20.591 25.3202 20.7573 26.2299 20.7502C28.7399 20.7502 30.3899 19.5102 30.3999 17.5902L30.3499 17.6702ZM23.8599 11.3902L21.8599 20.6402H19.4599L21.4599 11.3902H23.8599ZM33.9199 17.3902L35.1799 13.9202L35.9099 17.3902H33.9199ZM38.8099 20.6702H36.5899L36.2999 19.2902H33.2899L32.7999 20.6702H30.2799L33.8699 12.1002C34.0354 11.6924 34.4299 11.4242 34.8699 11.4202H36.8699L38.8099 20.6702ZM16.6099 20.6102L20.4899 11.3602H17.8899L15.3999 17.6502L14.3999 12.3002C14.3114 11.7565 13.8407 11.3579 13.2899 11.3602H9.21991L9.15991 11.6302C9.97625 11.7899 10.7692 12.052 11.5199 12.4102C11.8397 12.5605 12.0564 12.8684 12.0899 13.2202L13.9999 20.6102H16.6099Z" fill="white"/>
</g>
</svg>
